<?xml version="1.0" standalone="no"?>
<!DOCTYPE svg PUBLIC "-//W3C//DTD SVG 1.1//EN"
   "http://www.w3.org/Graphics/SVG/1.1/DTD/svg11.dtd">
<svg width="158" height="119" version="1.1"
   xmlns="http://www.w3.org/2000/svg">
   <desc>Zint Generated Symbol
   </desc>

   <g id="barcode" fill="#000000">
      <rect x="0" y="0" width="158" height="119" fill="#FFFFFF" />
      <rect x="0.00" y="0.00" width="4.00" height="100.00" />
      <rect x="6.00" y="0.00" width="2.00" height="100.00" />
      <rect x="12.00" y="0.00" width="6.00" height="100.00" />
      <rect x="22.00" y="0.00" width="2.00" height="100.00" />
      <rect x="26.00" y="0.00" width="4.00" height="100.00" />
      <rect x="34.00" y="0.00" width="6.00" height="100.00" />
      <rect x="44.00" y="0.00" width="2.00" height="100.00" />
      <rect x="52.00" y="0.00" width="2.00" height="100.00" />
      <rect x="56.00" y="0.00" width="4.00" height="100.00" />
      <rect x="66.00" y="0.00" width="2.00" height="100.00" />
      <rect x="70.00" y="0.00" width="8.00" height="100.00" />
      <rect x="80.00" y="0.00" width="6.00" height="100.00" />
      <rect x="88.00" y="0.00" width="4.00" height="100.00" />
      <rect x="94.00" y="0.00" width="6.00" height="100.00" />
      <rect x="104.00" y="0.00" width="2.00" height="100.00" />
      <rect x="110.00" y="0.00" width="6.00" height="100.00" />
      <rect x="118.00" y="0.00" width="2.00" height="100.00" />
      <rect x="122.00" y="0.00" width="4.00" height="100.00" />
      <rect x="132.00" y="0.00" width="4.00" height="100.00" />
      <rect x="142.00" y="0.00" width="6.00" height="100.00" />
      <rect x="150.00" y="0.00" width="2.00" height="100.00" />
      <rect x="154.00" y="0.00" width="4.00" height="100.00" />
      <text x="79.00" y="115.40" text-anchor="middle"
         font-family="Helvetica, sans-serif" font-size="14.0" >
         12345
      </text>
   </g>
</svg>
